<svg width="25" height="25" viewBox="0 0 25 25" fill="none" xmlns="http://www.w3.org/2000/svg">
<g clip-path="url(#clip0)">
<path d="M1.56244 1.70098C-0.40214 3.7416 -5.69299e-05 5.90931 -5.69299e-05 12.4947C-5.69299e-05 17.9635 -0.954224 23.4458 4.03953 24.7364C5.5989 25.1374 19.4156 25.1374 20.9729 24.7343C23.052 24.1978 24.7437 22.5114 24.9749 19.5708C25.0072 19.1603 25.0072 5.83639 24.9739 5.41764C24.7281 2.28535 22.7999 0.480145 20.2593 0.11452C19.677 0.0301448 19.5604 0.00514475 16.5729 -6.35795e-05C5.97598 0.00514475 3.65307 -0.46673 1.56244 1.70098Z" fill="black"/>
<path d="M12.4979 3.26965C8.71563 3.26965 5.12397 2.93319 3.75209 6.45403C3.18543 7.90819 3.26772 9.79673 3.26772 12.5009C3.26772 14.8738 3.19168 17.104 3.75209 18.5467C5.12084 22.0696 8.74168 21.7321 12.4958 21.7321C16.1177 21.7321 19.8521 22.1092 21.2406 18.5467C21.8083 17.078 21.725 15.2176 21.725 12.5009C21.725 8.89465 21.924 6.56652 20.175 4.81861C18.4042 3.04778 16.0094 3.26965 12.4938 3.26965H12.4979ZM11.6708 4.93319C19.5604 4.92069 20.5646 4.04361 20.0104 16.228C19.8136 20.5374 16.5323 20.0644 12.499 20.0644C5.1448 20.0644 4.93334 19.854 4.93334 12.4967C4.93334 5.05403 5.51668 4.93736 11.6708 4.93111V4.93319ZM17.425 6.46548C16.8136 6.46548 16.3177 6.96132 16.3177 7.57277C16.3177 8.18423 16.8136 8.68007 17.425 8.68007C18.0365 8.68007 18.5323 8.18423 18.5323 7.57277C18.5323 6.96132 18.0365 6.46548 17.425 6.46548ZM12.4979 7.76027C9.88022 7.76027 7.75834 9.88319 7.75834 12.5009C7.75834 15.1186 9.88022 17.2405 12.4979 17.2405C15.1156 17.2405 17.2365 15.1186 17.2365 12.5009C17.2365 9.88319 15.1156 7.76027 12.4979 7.76027ZM12.4979 9.42382C16.5656 9.42382 16.5708 15.578 12.4979 15.578C8.43126 15.578 8.42501 9.42382 12.4979 9.42382Z" fill="white"/>
</g>
<defs>
<clipPath id="clip0">
<rect width="25" height="25" fill="white"/>
</clipPath>
</defs>
</svg>
