<svg width="85" height="85" viewBox="0 0 85 85" fill="none" xmlns="http://www.w3.org/2000/svg">
<g clip-path="url(#clip0)">
<path d="M36.8333 0.793523C30.1089 1.70019 22.2511 4.87352 16.8111 8.95352C1.92666 20.0224 -3.81557 40.5735 3.13554 57.8002C4.45777 61.0869 4.9111 61.6913 5.81777 61.3513C6.64888 61.0491 6.57332 60.6713 4.75999 56.0246C1.13332 46.6935 1.5111 35.1713 5.81777 25.878C9.97332 16.8869 17.68 9.40685 26.7089 5.66686C32.98 3.06019 40.9889 2.04018 47.6378 2.98463C54.06 3.92908 60.86 6.80019 65.9978 10.6913L68.5666 12.6557L64.4111 12.8446C60.5578 13.0335 60.2555 13.1091 60.2555 13.7891C60.2555 14.5069 60.5578 14.5446 66.2244 14.658L72.1933 14.7713L72.08 8.80241C71.9666 3.13574 71.9289 2.83352 71.2111 2.83352C70.4933 2.83352 70.4555 3.13574 70.3422 7.06463L70.2289 11.258L67.1311 8.91574C62.1444 5.17574 56.0244 2.45574 49.8666 1.28463C46.1644 0.566851 40.12 0.340185 36.8333 0.793523Z" fill="#4D6172"/>
<path d="M36.9844 15.4891C31.5822 16.358 25.3489 19.6069 21.6467 23.5357C16.4711 29.0135 13.6 36.8713 14.1666 43.9357C14.9978 53.9091 20.4378 62.1069 29.1644 66.5269C36.5311 70.2669 46.24 70.1535 53.5689 66.3002C62.7111 61.5024 68.0378 52.7002 68.1133 42.3113C68.1511 29.9202 59.84 19.1535 47.7889 16.0557C44.9555 15.338 39.7422 15.0357 36.9844 15.4891ZM39.6667 21.118V24.858L36.4555 25.1224C34.68 25.2735 32.3 25.6135 31.1667 25.878C30.0333 26.1424 29.0889 26.2557 29.0889 26.1046C29.0889 25.9913 29.7689 24.3291 30.6378 22.4024C32.1867 19.0024 32.2622 18.8891 33.9622 18.3602C35.8889 17.7557 37.06 17.4913 38.6467 17.4157L39.6667 17.378V21.118ZM47.3733 18.1335C56.2889 20.4002 63.58 27.8802 65.5444 36.8335C66.9044 42.8402 65.8089 49.7157 62.6355 55.0802C61.0489 57.8002 56.6667 62.1824 53.9467 63.7691C51.0755 65.4691 46.9955 66.8291 44.0111 67.1313L41.5555 67.358V60.6713V54.0224H42.4622C43.2178 54.0224 43.4822 54.3246 43.9733 55.8357L44.6155 57.6869L46.5044 57.3846C47.5244 57.2335 48.9222 56.8935 49.64 56.6291C50.8867 56.1757 50.8867 56.1757 50.5467 54.438C50.2444 52.8135 50.2822 52.6624 51.2267 51.8691L52.2467 51.0757L53.9089 51.8691L55.6089 52.7002L56.3644 51.7557C56.78 51.2269 57.5355 49.9802 58.0644 48.9602C58.8955 47.298 58.9333 47.0713 58.4044 46.7691C56.7044 45.8246 55.9867 44.7669 56.1755 43.5957C56.3267 42.538 56.5911 42.3113 58.0644 41.8957L59.7644 41.4424L59.5378 39.5535C59.3867 38.4957 59.0467 37.0602 58.7444 36.3802C58.2155 35.1335 58.1778 35.0957 56.3644 35.3602C54.6644 35.5869 54.4755 35.5113 53.8711 34.5669C53.1911 33.5469 53.1911 33.4713 53.9467 31.8846L54.74 30.2602L53.5311 29.3157C52.8889 28.8246 51.6044 28.0691 50.7733 27.6157L49.1867 26.8602L48.2044 28.3335C46.6555 30.6757 44.7289 30.298 43.8222 27.4646C43.4822 26.3691 43.18 26.0669 42.4622 26.0669H41.5555V21.7224V17.378H42.9911C43.8222 17.378 45.7489 17.718 47.3733 18.1335ZM27.7667 23.838C26.86 26.0669 26.2178 27.1246 25.6133 27.3513C25.1222 27.5402 23.5733 28.258 22.1378 28.9757C20.7022 29.6557 19.4555 30.1469 19.38 30.0713C19.1533 29.8446 22.5155 25.5757 24.0267 24.1402C25.6889 22.5913 28.7489 20.3246 28.9378 20.5135C29.0133 20.5891 28.4844 22.0624 27.7667 23.838ZM39.6667 34.5669V41.9335H32.8667H26.0667V41.0646C26.0667 39.478 26.86 33.8491 27.4267 31.2802C27.9933 28.7491 28.0311 28.7113 29.5422 28.2957C32.4133 27.5402 34.1889 27.2757 36.9467 27.238L39.6667 27.2002V34.5669ZM42.6133 29.8069C43.0289 31.1291 43.2178 31.2802 44.6533 31.5069C45.56 31.6202 46.6178 31.8091 47.0711 31.9602C47.6755 32.1113 48.0533 31.8469 48.7711 30.8269C49.7911 29.278 50.2067 29.2024 51.4155 30.1846C52.2844 30.8646 52.2844 30.9024 51.6044 32.3757L50.9622 33.8491L52.2089 35.7757L53.4555 37.7024L55.1933 37.5135C57.0444 37.2869 57.1955 37.3624 57.5733 38.9869C57.8 39.9313 57.6867 40.0446 56.2511 40.4602C55.3822 40.7246 54.6644 41.1402 54.5889 41.3291C54.5511 41.5557 54.3244 42.6513 54.1355 43.7469L53.7578 45.7491L55.1933 46.8069L56.6289 47.8269L55.9111 49.0357L55.1555 50.2446L53.6444 49.4891L52.1333 48.7335L50.2067 50.1313L48.28 51.4913L48.5067 53.3424C48.6578 54.3624 48.62 55.1557 48.4311 55.1557C48.2422 55.1557 47.5622 55.2691 46.9578 55.3824C45.9 55.6091 45.7867 55.5335 45.3333 53.8713C44.88 52.2469 44.8044 52.1713 43.2933 52.058L41.7444 51.9446L41.6311 50.1313L41.5178 48.318L42.8778 48.5824C46.9955 49.338 50.7733 46.0135 50.7355 41.6691C50.6978 37.7402 47.5622 34.8691 43.5578 35.2091L41.5555 35.398V31.8469C41.5555 29.9202 41.7067 28.3335 41.8578 28.3335C42.0467 28.3335 42.3867 28.9757 42.6133 29.8069ZM25.5378 30.4491C25.0844 31.6202 24.1778 37.9669 24.1778 39.9313V41.9335H20.1733H16.1311L16.3578 39.5535C16.4711 38.2691 16.8489 36.3424 17.1889 35.2469L17.7555 33.2824L21.2689 31.5824C25.1222 29.7313 25.8778 29.5424 25.5378 30.4491ZM46.6933 37.778C48.3933 38.8735 49.3755 41.3669 48.7333 43.218C47.9022 45.7491 44.88 47.3735 42.5755 46.5046L41.5555 46.0891V41.9713C41.5555 38.4202 41.6689 37.778 42.2355 37.438C43.2933 36.7957 45.3333 36.9846 46.6933 37.778ZM24.6311 48.4313C24.9711 50.7735 25.3867 53.0024 25.5 53.3424C25.9155 54.3624 25.1222 54.1735 21.1555 52.2091C17.2267 50.2824 17.0378 49.9802 16.4333 45.9757L16.1689 44.2002H20.0978H24.0267L24.6311 48.4313ZM39.6667 50.4713V56.7802L36.5689 56.5535C34.8311 56.4402 32.2244 56.1002 30.7511 55.7602L28.0689 55.118L27.4644 52.5869C27.1244 51.1891 26.7467 49.1113 26.6333 47.978C26.52 46.8446 26.3311 45.5224 26.2178 45.0313L26.0667 44.2002H32.8667H39.6667V50.4713ZM23.0067 55.3069C24.9333 56.138 26.5955 57.0824 26.7089 57.3846C26.8222 57.7246 27.5022 59.3491 28.1822 60.9735C28.9 62.6357 29.3911 64.0335 29.3155 64.1469C28.9378 64.5246 24.7822 61.3135 22.7422 59.1224C20.74 56.9313 18.36 53.3802 19.1155 53.6824C19.3044 53.758 21.0422 54.5135 23.0067 55.3069ZM36.9467 58.7446L39.6667 59.0091V63.1269C39.6667 67.8869 39.9311 67.6602 35.4355 66.6402L32.7911 66.0357L31.1667 62.5602C28.6355 57.158 28.5978 57.4602 31.62 58.0269C33.0555 58.2535 35.4355 58.5935 36.9467 58.7446Z" fill="#4D6172"/>
<path d="M76.0844 20.9291C75.9711 21.2313 76.5378 22.7802 77.3689 24.4046C81.6378 32.9424 82.7333 42.9913 80.3533 52.1335C75.5933 70.3424 58.5556 82.8846 39.8933 81.8646C31.3556 81.3735 22.8178 78.0869 16.4333 72.7602L15.3 71.8157L19.1156 71.778C22.0622 71.778 23.0445 71.6269 23.4222 71.2113C23.8 70.758 23.8 70.5313 23.4222 70.078C23.0445 69.6246 21.8733 69.5113 17.34 69.5113H11.7111V75.5935V81.638L12.58 81.5246C13.3733 81.4113 13.4111 81.2224 13.6 77.3691L13.7889 73.3269L16.4333 75.4046C21.5333 79.3713 29.0511 82.5824 35.4733 83.4891C40.3845 84.2069 48.5067 83.7913 52.8511 82.5824C68.2644 78.2757 79.6356 66.0735 82.96 50.2446C83.7533 46.4669 83.8289 38.8357 83.1489 35.1335C82.3933 31.0913 81.26 27.578 79.4844 23.8757C78.2 21.1935 77.6333 20.4002 77.0667 20.4002C76.6133 20.4002 76.1978 20.6268 76.0844 20.9291Z" fill="#4D6172"/>
</g>
<defs>
<clipPath id="clip0">
<rect y="0.000183105" width="85" height="85" fill="white"/>
</clipPath>
</defs>
</svg>
