<svg width="85" height="85" viewBox="0 0 85 85" fill="none" xmlns="http://www.w3.org/2000/svg">
<g clip-path="url(#clip0)">
<path d="M70.1423 27.6425C70.1423 12.4414 57.8723 0.106271 42.6961 0.000851503C27.4448 -0.105066 14.8576 12.3911 14.8578 27.6428C14.858 37.3032 19.814 45.8052 27.3219 50.7472C29.2616 52.024 30.4066 54.2114 30.4066 56.5337V61.1589H54.5936V56.5006C54.5936 54.1756 55.765 52.0099 57.7056 50.7293C65.1982 45.7846 70.1423 37.2913 70.1423 27.6425Z" fill="#FFE07D"/>
<path d="M61.9247 7.97839C64.4437 12.3438 65.8855 17.4092 65.8855 22.8116C65.8855 39.2265 52.5785 52.5335 36.1636 52.5335C33.412 52.5335 30.7486 52.158 28.2197 51.4582C29.6084 52.7573 30.4065 54.5976 30.4065 56.5336V61.1588H54.5935V56.5006C54.5935 54.1756 55.7649 52.0099 57.7054 50.7292C65.198 45.7846 70.1423 37.2914 70.1423 27.6426C70.1423 19.9483 66.9975 12.9897 61.9247 7.97839Z" fill="#FFD064"/>
<path d="M53.557 76.7076H31.4431C30.489 76.7076 29.7153 75.9341 29.7153 74.98V67.0328H55.2844V74.98C55.2846 75.9341 54.5111 76.7076 53.557 76.7076Z" fill="#F1F4F6"/>
<path d="M51.3975 67.0327V74.9798C51.3975 75.9339 50.624 76.7074 49.6699 76.7074H53.5572C54.5113 76.7074 55.2849 75.9339 55.2849 74.9798V67.0327H51.3975Z" fill="#DFEAEF"/>
<path d="M54.9391 67.0326H30.061C29.1069 67.0326 28.3333 66.2592 28.3333 65.3051V62.8864C28.3333 61.9323 29.1067 61.1588 30.061 61.1588H54.9391C55.8932 61.1588 56.6667 61.9323 56.6667 62.8864V65.3051C56.6667 66.2592 55.8932 67.0326 54.9391 67.0326Z" fill="#665E66"/>
<path d="M54.9391 61.1587H49.682C50.6361 61.1587 51.4096 61.9322 51.4096 62.8862V65.3049C51.4096 66.259 50.6361 67.0325 49.682 67.0325H54.9391C55.8932 67.0325 56.6666 66.259 56.6666 65.3049V62.8862C56.6666 61.9322 55.8932 61.1587 54.9391 61.1587Z" fill="#544F57"/>
<path d="M48.2588 85.0002H36.7411C36.0437 85.0002 35.4147 84.5808 35.1464 83.937L32.134 76.7076H52.8657L49.8534 83.937C49.5854 84.5808 48.9562 85.0002 48.2588 85.0002Z" fill="#665E66"/>
<path d="M48.4604 76.7076L45.448 83.937C45.1797 84.5808 44.5507 85.0002 43.8533 85.0002H48.2588C48.9563 85.0002 49.5853 84.5808 49.8536 83.937L52.8659 76.7076H48.4604Z" fill="#544F57"/>
<path d="M44.0583 38.3651H46.6238V61.1589H44.0583V38.3651Z" fill="#544F57"/>
<path d="M38.3765 38.3651H40.9419V61.1589H38.3765V38.3651Z" fill="#544F57"/>
<path d="M60.8251 28.7358V24.8213C60.8251 24.3187 60.4611 23.89 59.965 23.8087L56.0075 23.1599C55.6323 23.0984 55.3244 22.8335 55.202 22.4737C55.0124 21.9166 54.7872 21.3759 54.5288 20.8542C54.3597 20.5126 54.3896 20.1065 54.612 19.7967L56.9532 16.5375C57.2463 16.1293 57.2007 15.5686 56.8453 15.2132L54.0773 12.4452C53.7218 12.0898 53.1612 12.0441 52.753 12.3375L49.4938 14.6786C49.1841 14.9011 48.7779 14.931 48.4362 14.7618C47.9146 14.5035 47.3739 14.2782 46.8168 14.0886C46.4568 13.9661 46.192 13.6581 46.1306 13.2831L45.4818 9.32561C45.4005 8.82956 44.9718 8.46548 44.4691 8.46548H40.5546C40.0519 8.46548 39.6233 8.82956 39.5419 9.32561L38.8932 13.2831C38.8317 13.6583 38.5668 13.9662 38.207 14.0886C37.6499 14.2782 37.1091 14.5035 36.5875 14.7618C36.2459 14.931 35.8398 14.9011 35.53 14.6786L32.2708 12.3375C31.8626 12.0443 31.3019 12.0899 30.9465 12.4452L28.1785 15.2132C27.8231 15.5686 27.7774 16.1293 28.0706 16.5375L30.4117 19.7967C30.6342 20.1063 30.6641 20.5126 30.4949 20.8542C30.2366 21.3759 30.0113 21.9166 29.8217 22.4737C29.6992 22.8336 29.3912 23.0984 29.0162 23.1599L25.0587 23.8087C24.5627 23.89 24.1986 24.3187 24.1986 24.8213V28.7358C24.1986 29.2385 24.5627 29.6672 25.0587 29.7485L29.0162 30.3973C29.3914 30.4587 29.6994 30.7237 29.8217 31.0835C30.0113 31.6406 30.2366 32.1813 30.4949 32.7029C30.6641 33.0446 30.6342 33.4507 30.4117 33.7605L28.0706 37.0197C27.7774 37.4279 27.8231 37.9885 28.1785 38.344L30.9465 41.112C31.3019 41.4674 31.8626 41.5131 32.2708 41.2197L35.53 38.8786C35.8396 38.6561 36.2459 38.6262 36.5875 38.7954C37.1091 39.0537 37.6499 39.279 38.207 39.4686C38.5669 39.5911 38.8317 39.8991 38.8932 40.2741L39.5419 44.2316C39.6233 44.7276 40.0519 45.0917 40.5546 45.0917H44.4691C44.9718 45.0917 45.4005 44.7276 45.4818 44.2316L46.1306 40.2741C46.192 39.8989 46.457 39.5909 46.8168 39.4686C47.3739 39.279 47.9146 39.0537 48.4362 38.7954C48.7779 38.6262 49.184 38.6561 49.4938 38.8786L52.753 41.2197C53.1612 41.5129 53.7218 41.4672 54.0773 41.112L56.8453 38.344C57.2007 37.9885 57.2463 37.4279 56.9532 37.0197L54.612 33.7605C54.3896 33.4508 54.3597 33.0446 54.5288 32.7029C54.7872 32.1813 55.0124 31.6406 55.202 31.0835C55.3246 30.7235 55.6325 30.4587 56.0075 30.3973L59.965 29.7485C60.4611 29.6672 60.8251 29.2385 60.8251 28.7358ZM42.5121 30.3518C40.5387 30.3518 38.9388 28.7519 38.9388 26.7785C38.9388 24.8051 40.5387 23.2052 42.5121 23.2052C44.4856 23.2052 46.0854 24.8049 46.0854 26.7785C46.0854 28.7521 44.4857 30.3518 42.5121 30.3518Z" fill="#4D6172"/>
<path d="M59.965 23.8088L56.0075 23.16C55.6323 23.0986 55.3243 22.8336 55.202 22.4739C55.191 22.4415 55.1786 22.4098 55.1675 22.3774C54.3713 31.4231 47.1741 38.6302 38.1329 39.4418C38.1578 39.4505 38.1824 39.4601 38.2073 39.4686C38.5672 39.5911 38.832 39.899 38.8935 40.2741L39.5422 44.2316C39.6236 44.7276 40.0522 45.0917 40.5549 45.0917H44.4694C44.9721 45.0917 45.4008 44.7276 45.4821 44.2316L46.1309 40.2741C46.1923 39.8989 46.4573 39.5909 46.8172 39.4686C47.3744 39.279 47.9151 39.0537 48.4367 38.7954C48.7784 38.6262 49.1846 38.6561 49.4942 38.8785L52.7534 41.2197C53.1617 41.5129 53.7223 41.4674 54.0777 41.112L56.8457 38.344C57.2012 37.9885 57.2468 37.4279 56.9535 37.0197L54.6123 33.7604C54.3898 33.4508 54.36 33.0448 54.5291 32.7029C54.7875 32.1813 55.0127 31.6406 55.2023 31.0834C55.3247 30.7235 55.6328 30.4587 56.0078 30.3973L59.9653 29.7485C60.4614 29.6672 60.8254 29.2385 60.8254 28.7358V24.8215C60.8251 24.3188 60.461 23.8901 59.965 23.8088Z" fill="#4D6172"/>
<path d="M42.5122 36.0357C37.4078 36.0357 33.2551 31.883 33.2551 26.7787C33.2551 21.6744 37.4078 17.5216 42.5122 17.5216C47.6165 17.5216 51.7694 21.6744 51.7694 26.7787C51.7694 31.883 47.6165 36.0357 42.5122 36.0357ZM42.5122 20.0119C38.781 20.0119 35.7454 23.0475 35.7454 26.7787C35.7454 30.5099 38.781 33.5455 42.5122 33.5455C46.2435 33.5455 49.2791 30.5099 49.2791 26.7787C49.2791 23.0475 46.2435 20.0119 42.5122 20.0119Z" fill="#D0E2E7"/>
</g>
<defs>
<clipPath id="clip0">
<rect y="0.000183105" width="85" height="85" fill="white"/>
</clipPath>
</defs>
</svg>
