<svg width="94" height="85" viewBox="0 0 94 85" fill="none" xmlns="http://www.w3.org/2000/svg">
<g clip-path="url(#clip0)">
<path d="M13.6155 18.4785H3.89014V19.451H13.6155V18.4785Z" fill="#4D6172"/>
<path d="M13.6155 22.3686H3.89014V23.3411H13.6155V22.3686Z" fill="#4D6172"/>
<path d="M13.6155 26.2588H3.89014V27.2313H13.6155V26.2588Z" fill="#4D6172"/>
<path d="M13.6155 30.1489H3.89014V31.1215H13.6155V30.1489Z" fill="#4D6172"/>
<path d="M13.6155 34.0391H3.89014V35.0116H13.6155V34.0391Z" fill="#4D6172"/>
<path d="M13.6155 37.9293H3.89014V38.9018H13.6155V37.9293Z" fill="#4D6172"/>
<path d="M13.6155 41.8194H3.89014V42.7919H13.6155V41.8194Z" fill="#4D6172"/>
<path d="M13.6155 45.7096H3.89014V46.6821H13.6155V45.7096Z" fill="#4D6172"/>
<path d="M13.6155 49.5997H3.89014V50.5723H13.6155V49.5997Z" fill="#4D6172"/>
<path d="M13.6155 53.4899H3.89014V54.4624H13.6155V53.4899Z" fill="#4D6172"/>
<path d="M13.6155 57.38H3.89014V58.3526H13.6155V57.38Z" fill="#4D6172"/>
<path d="M72.4543 5.34915C71.1899 5.34915 70.2174 6.32169 70.2174 7.58599C70.2174 8.8503 71.1899 9.82284 72.4543 9.82284C73.7186 9.82284 74.6911 8.8503 74.6911 7.58599C74.6911 6.32169 73.7186 5.34915 72.4543 5.34915ZM72.4543 8.94755C71.7735 8.94755 71.1899 8.36403 71.1899 7.68325C71.1899 7.00247 71.7735 6.41895 72.4543 6.41895C73.135 6.41895 73.7186 7.00247 73.7186 7.68325C73.7186 8.36403 73.135 8.94755 72.4543 8.94755Z" fill="#4D6172"/>
<path d="M78.2895 5.34915C77.0252 5.34915 76.0526 6.32169 76.0526 7.58599C76.0526 8.8503 77.0252 9.82284 78.2895 9.82284C79.5538 9.82284 80.5263 8.8503 80.5263 7.58599C80.5263 6.32169 79.5538 5.34915 78.2895 5.34915ZM78.2895 8.94755C77.6087 8.94755 77.0252 8.36403 77.0252 7.68325C77.0252 7.00247 77.6087 6.41895 78.2895 6.41895C78.9702 6.41895 79.5538 7.00247 79.5538 7.68325C79.5538 8.36403 78.9702 8.94755 78.2895 8.94755Z" fill="#4D6172"/>
<path d="M84.1247 5.34915C82.8604 5.34915 81.8878 6.32169 81.8878 7.58599C81.8878 8.8503 82.8604 9.82284 84.1247 9.82284C85.389 9.82284 86.3615 8.8503 86.3615 7.58599C86.3615 6.32169 85.389 5.34915 84.1247 5.34915ZM84.1247 8.94755C83.4439 8.94755 82.8604 8.36403 82.8604 7.68325C82.8604 7.00247 83.4439 6.41895 84.1247 6.41895C84.8054 6.41895 85.389 7.00247 85.389 7.68325C85.389 8.36403 84.8054 8.94755 84.1247 8.94755Z" fill="#4D6172"/>
<path d="M45.7094 24.9945L37.9291 21.2016V22.8549L43.8616 25.8698L37.9291 28.7874V30.4407L45.7094 26.6478V24.9945Z" fill="#4D6172"/>
<path d="M28.2037 30.4407V28.7874L22.2712 25.8698L28.2037 22.8549V21.2016L20.4233 24.9945V26.6478L28.2037 30.4407Z" fill="#4D6172"/>
<path d="M34.8368 18.7432L29.4885 32.0016L30.9316 32.5837L36.2799 19.3253L34.8368 18.7432Z" fill="#4D6172"/>
<path d="M41.8192 35.9842H27.2311V36.9567H41.8192V35.9842Z" fill="#4D6172"/>
<path d="M41.8192 39.8743H27.2311V40.8469H41.8192V39.8743Z" fill="#4D6172"/>
<path d="M57.3798 39.8743H42.7917V40.8469H57.3798V39.8743Z" fill="#4D6172"/>
<path d="M52.5172 37.9293H37.9291V38.9018H52.5172V37.9293Z" fill="#4D6172"/>
<path d="M26.2586 35.9842H20.4233V36.9567H26.2586V35.9842Z" fill="#4D6172"/>
<path d="M26.2586 47.6546H20.4233V48.6272H26.2586V47.6546Z" fill="#4D6172"/>
<path d="M30.1487 37.9293H24.3135V38.9018H30.1487V37.9293Z" fill="#4D6172"/>
<path d="M36.9566 37.9293H31.1213V38.9018H36.9566V37.9293Z" fill="#4D6172"/>
<path d="M30.1487 45.7096H24.3135V46.6821H30.1487V45.7096Z" fill="#4D6172"/>
<path d="M36.9566 41.8194H31.1213V42.7919H36.9566V41.8194Z" fill="#4D6172"/>
<path d="M43.7643 41.8194H37.9291V42.7919H43.7643V41.8194Z" fill="#4D6172"/>
<path d="M50.5721 41.8194H44.7368V42.7919H50.5721V41.8194Z" fill="#4D6172"/>
<path d="M33.0663 43.7645H27.2311V44.737H33.0663V43.7645Z" fill="#4D6172"/>
<path d="M37.929 51.5448H23.3409V52.5173H37.929V51.5448Z" fill="#4D6172"/>
<path d="M53.4897 51.5448H38.9016V52.5173H53.4897V51.5448Z" fill="#4D6172"/>
<path d="M48.627 49.5997H34.0389V50.5723H48.627V49.5997Z" fill="#4D6172"/>
<path d="M26.2586 49.5997H20.4233V50.5723H26.2586V49.5997Z" fill="#4D6172"/>
<path d="M33.0663 49.5997H27.2311V50.5723H33.0663V49.5997Z" fill="#4D6172"/>
<path d="M26.2586 57.38H20.4233V58.3526H26.2586V57.38Z" fill="#4D6172"/>
<path d="M33.0663 53.4899H27.2311V54.4624H33.0663V53.4899Z" fill="#4D6172"/>
<path d="M39.8742 53.4899H34.0389V54.4624H39.8742V53.4899Z" fill="#4D6172"/>
<path d="M46.6819 53.4899H40.8467V54.4624H46.6819V53.4899Z" fill="#4D6172"/>
<path d="M29.1762 55.435H23.3409V56.4075H29.1762V55.435Z" fill="#4D6172"/>
<path d="M89.1819 0.000183105H4.18192C1.84783 0.000183105 0 1.84801 0 4.18211V13.6157V14.5883V60.0059C0 62.34 1.84783 64.1878 4.18192 64.1878H15.5606H16.5332H51.0584L50.7666 66.0357L54.6568 66.7164C54.754 67.9807 54.9485 69.245 55.3375 70.5093L51.9336 72.4544L55.3375 78.3869L58.6442 76.4418C59.5195 77.4144 60.492 78.2896 61.659 78.9704L60.2975 82.6661L66.7162 85.0002L67.9806 81.4018C69.3421 81.5963 70.6064 81.5963 71.968 81.4018L73.2323 85.0002L79.7483 82.6661L78.3867 79.0677C79.4565 78.3869 80.5263 77.5116 81.4016 76.5391L84.7082 78.4842L88.1121 72.5517L84.7082 70.6066C85.0973 69.3423 85.2918 68.078 85.389 66.8137L89.2792 66.1329L88.9874 64.1878H89.2792C91.516 64.1878 93.4611 62.34 93.4611 60.0059V14.5883V13.6157V4.18211C93.3638 1.84801 91.516 0.000183105 89.1819 0.000183105ZM4.18192 62.2427C2.91762 62.2427 1.94508 61.2702 1.94508 60.0059V14.5883H15.5606V62.2427H4.18192ZM83.4439 65.1604V66.1329C83.4439 67.689 83.1522 69.245 82.6659 70.7038L82.3741 71.4819L85.4863 73.2325L84.0275 75.7611L80.9153 74.0105L80.4291 74.6913C79.3593 75.9556 78.1922 77.0254 76.7334 77.8034L76.0526 78.1924L77.2197 81.499L74.4966 82.4716L73.3295 79.1649L72.5515 79.3594C70.8009 79.6512 69.3421 79.6512 67.6888 79.3594L66.9108 79.1649L65.7437 82.4716L63.0206 81.499L64.1876 78.1924L63.3124 77.8034C61.8535 77.0254 60.5892 75.9556 59.6167 74.6913L59.1304 74.0105L56.0183 75.7611L54.5595 73.2325L57.6716 71.4819L57.3799 70.7038C56.7963 69.245 56.6018 67.689 56.6018 66.1329V65.1604L53.0034 64.5768L53.4897 61.6592L57.0881 62.34L57.3799 61.562C57.9634 60.0059 58.7414 58.6443 59.8112 57.4773L60.3947 56.8938L57.9634 54.0734L60.103 52.2256L62.3398 55.0459L63.0206 54.6569C64.2849 53.9762 66.1327 53.3926 67.1053 53.1009L68.0778 52.8091V49.5997H70.9954V52.7119L71.8707 52.8091C73.6213 53.1009 75.1773 53.5871 76.5389 54.3652L77.2197 54.7542L79.8455 51.9338L82.0824 53.8789L79.7483 56.7965L80.3318 57.38C81.4016 58.5471 82.1796 60.0059 82.7632 61.4647L83.0549 62.2427L86.6533 61.562L87.1396 64.4796L83.4439 65.1604ZM91.4188 60.0059C91.4188 61.173 90.4462 62.2427 89.1819 62.2427H88.5984L88.1121 59.3251L84.1247 60.0059C83.6385 58.8389 82.9577 57.6718 82.1796 56.6993L84.8055 53.5871L79.651 49.2107L76.8307 52.4201C75.6636 51.8366 74.3993 51.3503 72.9405 51.0585V47.6546H66.1327V51.1558C65.2574 51.4475 63.9931 51.8366 62.8261 52.3228L60.2975 49.308L55.143 53.6844L57.7689 56.7965C56.9908 57.7691 56.4073 58.9361 55.8238 60.1032L51.9336 59.4224L51.4474 62.34H16.5332V14.5883H91.4188V60.0059ZM16.5332 13.6157H15.5606H1.94508V4.18211C1.94508 2.9178 2.91762 1.94526 4.18192 1.94526H89.3764C90.5435 1.94526 91.4188 2.9178 91.4188 4.18211V13.6157H16.5332Z" fill="#4D6172"/>
<path d="M70.0229 56.213C64.5767 56.213 60.103 60.6867 60.103 66.1329C60.103 71.5791 64.5767 76.0528 70.0229 76.0528C75.4692 76.0528 79.9428 71.5791 79.9428 66.1329C79.9428 60.6867 75.4692 56.213 70.0229 56.213ZM70.0229 75.0803C65.063 75.0803 61.0756 71.0928 61.0756 66.1329C61.0756 61.1729 65.063 57.1855 70.0229 57.1855C74.9829 57.1855 78.9703 61.1729 78.9703 66.1329C78.9703 71.0928 74.9829 75.0803 70.0229 75.0803Z" fill="#4D6172"/>
<path d="M70.0228 58.5471C65.8409 58.5471 62.437 61.951 62.437 66.1329C62.437 70.3148 65.8409 73.7187 70.0228 73.7187C74.2047 73.7187 77.6086 70.3148 77.6086 66.1329C77.6086 61.951 74.2047 58.5471 70.0228 58.5471ZM70.0228 71.7736C66.9107 71.7736 64.3821 69.245 64.3821 66.1329C64.3821 63.0208 66.9107 60.4922 70.0228 60.4922C73.135 60.4922 75.6636 63.0208 75.6636 66.1329C75.6636 69.245 73.135 71.7736 70.0228 71.7736Z" fill="#4D6172"/>
</g>
<defs>
<clipPath id="clip0">
<rect y="0.000183105" width="93.3638" height="85" fill="white"/>
</clipPath>
</defs>
</svg>
