<svg width="85" height="85" viewBox="0 0 85 85" fill="none" xmlns="http://www.w3.org/2000/svg">
<path d="M79.2473 8.73327H44.4922V4.81464C44.4922 4.63852 44.4223 4.46961 44.2977 4.34507C44.1732 4.22054 44.0043 4.15057 43.8282 4.15057C43.652 4.15057 43.4831 4.22054 43.3586 4.34507C43.2341 4.46961 43.1641 4.63852 43.1641 4.81464V8.7326H8.40906C7.52878 8.73366 6.68486 9.08382 6.06241 9.70627C5.43996 10.3287 5.0898 11.1726 5.08875 12.0529V75.6037C5.0898 76.484 5.43996 77.3279 6.06241 77.9503C6.68486 78.5728 7.52878 78.923 8.40906 78.924H43.1641V82.842C43.1641 83.0181 43.2341 83.187 43.3586 83.3115C43.4831 83.4361 43.652 83.506 43.8282 83.506C44.0043 83.506 44.1732 83.4361 44.2977 83.3115C44.4223 83.187 44.4922 83.0181 44.4922 82.842V78.924H79.2473C80.1275 78.923 80.9715 78.5728 81.5939 77.9503C82.2164 77.3279 82.5665 76.484 82.5676 75.6037V12.0529C82.5663 11.1728 82.2161 10.329 81.5937 9.7067C80.9712 9.08439 80.1274 8.73432 79.2473 8.73327Z" fill="#E6E7E8"/>
<path d="M3.09656 17.3741H79.2473V72.9475C79.2473 73.6519 78.9674 74.3276 78.4693 74.8257C77.9711 75.3239 77.2955 75.6037 76.591 75.6037H5.75281C5.04833 75.6037 4.3727 75.3239 3.87456 74.8257C3.37641 74.3276 3.09656 73.6519 3.09656 72.9475V17.3741Z" fill="#D4FBFF"/>
<path d="M41.1719 75.603H76.591C77.2955 75.603 77.9711 75.3232 78.4692 74.825C78.9674 74.3269 79.2472 73.6513 79.2472 72.9468V17.3741H41.1719V75.603Z" fill="#FFD7E5"/>
<path d="M3.09656 9.39734V17.3741H79.2473V9.39734C79.2473 8.69286 78.9674 8.01723 78.4693 7.51909C77.9711 7.02094 77.2955 6.74109 76.591 6.74109H5.75281C5.04833 6.74109 4.3727 7.02094 3.87456 7.51909C3.37641 8.01723 3.09656 8.69286 3.09656 9.39734Z" fill="#0089EF"/>
<path d="M76.591 6.74109H41.1719V17.3741H79.2472V9.39734C79.2472 8.69286 78.9674 8.01723 78.4692 7.51909C77.9711 7.02094 77.2955 6.74109 76.591 6.74109Z" fill="#FA759E"/>
<path d="M76.591 6.74109H5.75281C5.04833 6.74109 4.3727 7.02094 3.87456 7.51909C3.37641 8.01723 3.09656 8.69286 3.09656 9.39734V11.3895C3.09656 10.685 3.37641 10.0094 3.87456 9.51127C4.3727 9.01313 5.04833 8.73328 5.75281 8.73328H76.591C77.2955 8.73328 77.9711 9.01313 78.4693 9.51127C78.9674 10.0094 79.2473 10.685 79.2473 11.3895V9.39734C79.2473 8.69286 78.9674 8.01723 78.4693 7.51909C77.9711 7.02094 77.2955 6.74109 76.591 6.74109Z" fill="white"/>
<path d="M26.749 14.5007C27.9435 14.5007 28.9119 13.5323 28.9119 12.3378C28.9119 11.1433 27.9435 10.175 26.749 10.175C25.5545 10.175 24.5862 11.1433 24.5862 12.3378C24.5862 13.5323 25.5545 14.5007 26.749 14.5007Z" fill="white"/>
<path d="M18.8926 14.5007C20.0871 14.5007 21.0554 13.5323 21.0554 12.3378C21.0554 11.1433 20.0871 10.175 18.8926 10.175C17.6981 10.175 16.7297 11.1433 16.7297 12.3378C16.7297 13.5323 17.6981 14.5007 18.8926 14.5007Z" fill="#D4FBFF"/>
<path d="M11.0354 14.5007C12.2299 14.5007 13.1983 13.5323 13.1983 12.3378C13.1983 11.1433 12.2299 10.175 11.0354 10.175C9.8409 10.175 8.87256 11.1433 8.87256 12.3378C8.87256 13.5323 9.8409 14.5007 11.0354 14.5007Z" fill="#FA759E"/>
<path d="M28.4358 40.176H23.9142C23.7381 40.176 23.5692 40.106 23.4446 39.9815C23.3201 39.8569 23.2501 39.688 23.2501 39.5119C23.2501 39.3358 23.3201 39.1669 23.4446 39.0423C23.5692 38.9178 23.7381 38.8478 23.9142 38.8478H28.4358C28.6119 38.8478 28.7808 38.9178 28.9053 39.0423C29.0299 39.1669 29.0998 39.3358 29.0998 39.5119C29.0998 39.688 29.0299 39.8569 28.9053 39.9815C28.7808 40.106 28.6119 40.176 28.4358 40.176Z" fill="#FA759E"/>
<path d="M19.9299 40.176H8.75171C8.57559 40.176 8.40668 40.106 8.28215 39.9815C8.15761 39.8569 8.08765 39.688 8.08765 39.5119C8.08765 39.3358 8.15761 39.1669 8.28215 39.0423C8.40668 38.9178 8.57559 38.8478 8.75171 38.8478H19.9299C20.106 38.8478 20.2749 38.9178 20.3994 39.0423C20.524 39.1669 20.5939 39.3358 20.5939 39.5119C20.5939 39.688 20.524 39.8569 20.3994 39.9815C20.2749 40.106 20.106 40.176 19.9299 40.176Z" fill="#FA759E"/>
<path d="M28.4358 54.1213H21.59C21.4138 54.1213 21.2449 54.0513 21.1204 53.9268C20.9959 53.8022 20.9259 53.6333 20.9259 53.4572C20.9259 53.2811 20.9959 53.1122 21.1204 52.9877C21.2449 52.8631 21.4138 52.7932 21.59 52.7932H28.4358C28.6119 52.7932 28.7808 52.8631 28.9054 52.9877C29.0299 53.1122 29.0999 53.2811 29.0999 53.4572C29.0999 53.6333 29.0299 53.8022 28.9054 53.9268C28.7808 54.0513 28.6119 54.1213 28.4358 54.1213Z" fill="#FA759E"/>
<path d="M18.9338 54.1213H8.75171C8.57559 54.1213 8.40668 54.0513 8.28215 53.9268C8.15761 53.8022 8.08765 53.6333 8.08765 53.4572C8.08765 53.2811 8.15761 53.1122 8.28215 52.9877C8.40668 52.8631 8.57559 52.7932 8.75171 52.7932H18.9338C19.1099 52.7932 19.2788 52.8631 19.4033 52.9877C19.5279 53.1122 19.5978 53.2811 19.5978 53.4572C19.5978 53.6333 19.5279 53.8022 19.4033 53.9268C19.2788 54.0513 19.1099 54.1213 18.9338 54.1213Z" fill="#FA759E"/>
<path d="M28.4358 68.0666H21.59C21.4138 68.0666 21.2449 67.9966 21.1204 67.8721C20.9959 67.7476 20.9259 67.5786 20.9259 67.4025C20.9259 67.2264 20.9959 67.0575 21.1204 66.933C21.2449 66.8084 21.4138 66.7385 21.59 66.7385H28.4358C28.6119 66.7385 28.7808 66.8084 28.9054 66.933C29.0299 67.0575 29.0999 67.2264 29.0999 67.4025C29.0999 67.5786 29.0299 67.7476 28.9054 67.8721C28.7808 67.9966 28.6119 68.0666 28.4358 68.0666Z" fill="#FA759E"/>
<path d="M18.9338 68.0666H8.75171C8.57559 68.0666 8.40668 67.9966 8.28215 67.8721C8.15761 67.7476 8.08765 67.5786 8.08765 67.4025C8.08765 67.2264 8.15761 67.0575 8.28215 66.933C8.40668 66.8084 8.57559 66.7385 8.75171 66.7385H18.9338C19.1099 66.7385 19.2788 66.8084 19.4033 66.933C19.5279 67.0575 19.5978 67.2264 19.5978 67.4025C19.5978 67.5786 19.5279 67.7476 19.4033 67.8721C19.2788 67.9966 19.1099 68.0666 18.9338 68.0666Z" fill="#FA759E"/>
<path d="M73.6949 35.1743V24.8149C73.6949 24.0814 73.1003 23.4868 72.3668 23.4868H47.1637C46.4302 23.4868 45.8355 24.0814 45.8355 24.8149V35.1743C45.8355 35.9078 46.4302 36.5024 47.1637 36.5024H72.3668C73.1003 36.5024 73.6949 35.9078 73.6949 35.1743Z" fill="#6DC9F7"/>
<path d="M73.6957 57.9131V41.433C73.6957 40.6995 73.1011 40.1049 72.3676 40.1049H47.1644C46.4309 40.1049 45.8363 40.6995 45.8363 41.433V57.9131C45.8363 58.6466 46.4309 59.2412 47.1644 59.2412H72.3676C73.1011 59.2412 73.6957 58.6466 73.6957 57.9131Z" fill="#D4FBFF"/>
<path d="M14.8903 33.5426C15.004 33.5457 15.1172 33.5253 15.2227 33.4828C15.3283 33.4403 15.424 33.3766 15.5039 33.2956C15.5859 33.2131 15.6501 33.1147 15.6926 33.0064C15.7351 32.8982 15.7549 32.7823 15.7509 32.6661C15.7521 32.5218 15.7105 32.3804 15.6314 32.2597C15.5477 32.1345 15.4283 32.0373 15.2887 31.9808L10.0772 29.893L15.2887 27.8051C15.4286 27.7545 15.5488 27.661 15.6323 27.5379C15.7158 27.4148 15.7582 27.2685 15.7536 27.1198C15.7581 27.0054 15.7392 26.8913 15.6981 26.7844C15.657 26.6775 15.5945 26.5802 15.5145 26.4983C15.4352 26.4192 15.3406 26.3572 15.2364 26.3161C15.1322 26.275 15.0208 26.2556 14.9089 26.2592C14.7491 26.2608 14.5913 26.2935 14.444 26.3555L8.81809 28.6505C8.5647 28.7464 8.34746 28.9189 8.19653 29.1439C8.04836 29.3654 7.97059 29.6265 7.9734 29.893C7.96807 30.1623 8.04599 30.4266 8.19653 30.65C8.35171 30.8731 8.56735 31.0472 8.81809 31.152L14.444 33.447C14.5853 33.507 14.7368 33.5394 14.8903 33.5426Z" fill="#4D6172"/>
<path d="M17.4403 35.6603C17.6364 35.6619 17.8282 35.6035 17.9901 35.493C18.1609 35.3724 18.2824 35.1941 18.3321 34.991L21.9984 23.5166C22.0286 23.4085 22.0445 23.2969 22.0456 23.1846C22.0482 23.0649 22.0239 22.9462 21.9743 22.8372C21.9248 22.7282 21.8513 22.6318 21.7594 22.5551C21.5744 22.3929 21.336 22.3049 21.09 22.308C20.8886 22.3072 20.6925 22.372 20.5313 22.4927C20.3702 22.6134 20.2527 22.7833 20.1968 22.9767L16.5445 34.4517C16.5136 34.5598 16.4976 34.6714 16.4967 34.7838C16.4939 34.9036 16.5182 35.0225 16.5678 35.1316C16.6173 35.2407 16.6909 35.3372 16.7829 35.414C16.964 35.5747 17.1982 35.6625 17.4403 35.6603Z" fill="#4D6172"/>
<path d="M22.9308 32.2597C22.8516 32.3804 22.8101 32.5218 22.8112 32.6661C22.8072 32.7823 22.8271 32.8982 22.8695 33.0064C22.912 33.1147 22.9763 33.2131 23.0583 33.2956C23.138 33.3766 23.2336 33.4404 23.339 33.4829C23.4445 33.5254 23.5575 33.5457 23.6712 33.5426C23.8247 33.5395 23.9761 33.5071 24.1174 33.447L29.744 31.152C29.9947 31.047 30.2102 30.8729 30.3656 30.65C30.5159 30.4266 30.5936 30.1622 30.5881 29.893C30.5911 29.6266 30.5136 29.3654 30.3656 29.1439C30.2145 28.919 29.9973 28.7466 29.744 28.6505L24.1174 26.3555C23.9703 26.2934 23.8123 26.2607 23.6526 26.2592C23.5407 26.2556 23.4292 26.275 23.3251 26.3161C23.2209 26.3572 23.1263 26.4192 23.047 26.4983C22.967 26.5802 22.9045 26.6775 22.8634 26.7844C22.8223 26.8913 22.8034 27.0054 22.8079 27.1198C22.8032 27.2685 22.8457 27.4148 22.9292 27.5379C23.0126 27.661 23.1329 27.7545 23.2727 27.8051L28.4883 29.893L23.2767 31.9808C23.1357 32.0364 23.015 32.1337 22.9308 32.2597Z" fill="#4D6172"/>
<path d="M79.2473 27.8769C79.0712 27.8769 78.9023 27.9468 78.7778 28.0714C78.6532 28.1959 78.5833 28.3648 78.5833 28.5409V34.1994C78.5833 34.3755 78.6532 34.5444 78.7778 34.669C78.9023 34.7935 79.0712 34.8635 79.2473 34.8635C79.4234 34.8635 79.5923 34.7935 79.7169 34.669C79.8414 34.5444 79.9114 34.3755 79.9114 34.1994V28.5409C79.9114 28.3648 79.8414 28.1959 79.7169 28.0714C79.5923 27.9468 79.4234 27.8769 79.2473 27.8769Z" fill="#4D6172"/>
<path d="M76.591 6.07702H41.836V2.15839C41.836 1.98227 41.766 1.81336 41.6415 1.68882C41.5169 1.56429 41.348 1.49432 41.1719 1.49432C40.9958 1.49432 40.8269 1.56429 40.7023 1.68882C40.5778 1.81336 40.5078 1.98227 40.5078 2.15839V6.07635H5.75281C4.87253 6.07741 4.02861 6.42757 3.40616 7.05002C2.78371 7.67247 2.43355 8.51639 2.4325 9.39667V72.9474C2.43355 73.8277 2.78371 74.6716 3.40616 75.2941C4.02861 75.9165 4.87253 76.2667 5.75281 76.2678H40.5078V80.1857C40.5078 80.3618 40.5778 80.5308 40.7023 80.6553C40.8269 80.7798 40.9958 80.8498 41.1719 80.8498C41.348 80.8498 41.5169 80.7798 41.6415 80.6553C41.766 80.5308 41.836 80.3618 41.836 80.1857V76.2678H76.591C77.4713 76.2667 78.3152 75.9165 78.9377 75.2941C79.5601 74.6716 79.9103 73.8277 79.9113 72.9474V36.9665C79.9113 36.7904 79.8414 36.6215 79.7168 36.497C79.5923 36.3725 79.4234 36.3025 79.2473 36.3025C79.0711 36.3025 78.9022 36.3725 78.7777 36.497C78.6532 36.6215 78.5832 36.7904 78.5832 36.9665V72.9468C78.5832 73.4751 78.3733 73.9819 77.9997 74.3555C77.6261 74.7291 77.1194 74.939 76.591 74.939H41.836V18.0381H78.5832V25.5951C78.5832 25.7713 78.6532 25.9402 78.7777 26.0647C78.9022 26.1892 79.0711 26.2592 79.2473 26.2592C79.4234 26.2592 79.5923 26.1892 79.7168 26.0647C79.8414 25.9402 79.9113 25.7713 79.9113 25.5951V9.39733C79.9103 8.51705 79.5601 7.67313 78.9377 7.05068C78.3152 6.42823 77.4713 6.07807 76.591 6.07702ZM3.76062 9.39733C3.76062 8.86897 3.97051 8.36225 4.34412 7.98864C4.71773 7.61503 5.22445 7.40514 5.75281 7.40514H40.5078V16.71H3.76062V9.39733ZM5.75281 74.9403C5.22445 74.9403 4.71773 74.7304 4.34412 74.3568C3.97051 73.9832 3.76062 73.4765 3.76062 72.9481V18.0381H40.5078V43.4963H34.2066C34.0304 43.4963 33.8615 43.5662 33.737 43.6908C33.6125 43.8153 33.5425 43.9842 33.5425 44.1603C33.5425 44.3365 33.6125 44.5054 33.737 44.6299C33.8615 44.7544 34.0304 44.8244 34.2066 44.8244H40.5078V48.1447H13.4002C13.224 48.1447 13.0551 48.2147 12.9306 48.3392C12.8061 48.4637 12.7361 48.6327 12.7361 48.8088C12.7361 48.9849 12.8061 49.1538 12.9306 49.2783C13.0551 49.4029 13.224 49.4728 13.4002 49.4728H40.5078V57.4416H27.5659C27.3898 57.4416 27.2209 57.5116 27.0964 57.6361C26.9718 57.7606 26.9019 57.9295 26.9019 58.1057C26.9019 58.2818 26.9718 58.4507 27.0964 58.5752C27.2209 58.6998 27.3898 58.7697 27.5659 58.7697H40.5078V62.09H31.6094C31.4333 62.09 31.2644 62.16 31.1398 62.2845C31.0153 62.4091 30.9453 62.578 30.9453 62.7541C30.9453 62.9302 31.0153 63.0991 31.1398 63.2237C31.2644 63.3482 31.4333 63.4182 31.6094 63.4182H40.5078V74.939L5.75281 74.9403ZM41.836 16.71V7.40514H76.591C77.1194 7.40514 77.6261 7.61503 77.9997 7.98864C78.3733 8.36225 78.5832 8.86897 78.5832 9.39733V16.71H41.836Z" fill="#4D6172"/>
<path d="M30.1119 43.4963H13.4001C13.224 43.4963 13.0551 43.5662 12.9306 43.6908C12.806 43.8153 12.7361 43.9842 12.7361 44.1603C12.7361 44.3365 12.806 44.5054 12.9306 44.6299C13.0551 44.7544 13.224 44.8244 13.4001 44.8244H30.1119C30.2881 44.8244 30.457 44.7544 30.5815 44.6299C30.706 44.5054 30.776 44.3365 30.776 44.1603C30.776 43.9842 30.706 43.8153 30.5815 43.6908C30.457 43.5662 30.2881 43.4963 30.1119 43.4963Z" fill="#4D6172"/>
<path d="M13.4001 58.7697H23.4713C23.6474 58.7697 23.8163 58.6998 23.9409 58.5752C24.0654 58.4507 24.1354 58.2818 24.1354 58.1057C24.1354 57.9295 24.0654 57.7606 23.9409 57.6361C23.8163 57.5116 23.6474 57.4416 23.4713 57.4416H13.4001C13.224 57.4416 13.0551 57.5116 12.9306 57.6361C12.806 57.7606 12.7361 57.9295 12.7361 58.1057C12.7361 58.2818 12.806 58.4507 12.9306 58.5752C13.0551 58.6998 13.224 58.7697 13.4001 58.7697Z" fill="#4D6172"/>
<path d="M28.2307 62.09H13.4001C13.224 62.09 13.0551 62.16 12.9306 62.2845C12.806 62.4091 12.7361 62.578 12.7361 62.7541C12.7361 62.9302 12.806 63.0991 12.9306 63.2237C13.0551 63.3482 13.224 63.4182 13.4001 63.4182H28.2307C28.4068 63.4182 28.5757 63.3482 28.7002 63.2237C28.8248 63.0991 28.8947 62.9302 28.8947 62.7541C28.8947 62.578 28.8248 62.4091 28.7002 62.2845C28.5757 62.16 28.4068 62.09 28.2307 62.09Z" fill="#4D6172"/>
<path d="M74.3598 24.8149C74.3598 24.2865 74.1499 23.7798 73.7763 23.4062C73.4027 23.0326 72.896 22.8227 72.3676 22.8227H47.1644C46.6361 22.8227 46.1293 23.0326 45.7557 23.4062C45.3821 23.7798 45.1722 24.2865 45.1722 24.8149V35.1743C45.1722 35.7026 45.3821 36.2093 45.7557 36.5829C46.1293 36.9566 46.6361 37.1664 47.1644 37.1664H72.3676C72.896 37.1664 73.4027 36.9566 73.7763 36.5829C74.1499 36.2093 74.3598 35.7026 74.3598 35.1743V24.8149ZM73.0317 35.1743C73.0317 35.3504 72.9617 35.5193 72.8372 35.6438C72.7126 35.7684 72.5437 35.8383 72.3676 35.8383H47.1644C46.9883 35.8383 46.8194 35.7684 46.6949 35.6438C46.5703 35.5193 46.5004 35.3504 46.5004 35.1743V24.8149C46.5004 24.6388 46.5703 24.4699 46.6949 24.3453C46.8194 24.2208 46.9883 24.1508 47.1644 24.1508H72.3676C72.5437 24.1508 72.7126 24.2208 72.8372 24.3453C72.9617 24.4699 73.0317 24.6388 73.0317 24.8149V35.1743Z" fill="#4D6172"/>
<path d="M74.3598 57.9131V41.433C74.3598 40.9047 74.1499 40.398 73.7763 40.0244C73.4027 39.6507 72.896 39.4409 72.3676 39.4409H47.1644C46.6361 39.4409 46.1293 39.6507 45.7557 40.0244C45.3821 40.398 45.1722 40.9047 45.1722 41.433V57.9131C45.1722 58.4415 45.3821 58.9482 45.7557 59.3218C46.1293 59.6954 46.6361 59.9053 47.1644 59.9053H72.3676C72.896 59.9053 73.4027 59.6954 73.7763 59.3218C74.1499 58.9482 74.3598 58.4415 74.3598 57.9131ZM47.1644 40.769H72.3676C72.5437 40.769 72.7126 40.8389 72.8372 40.9635C72.9617 41.088 73.0317 41.2569 73.0317 41.433V51.6105L69.4497 49.0439C69.3314 48.959 69.1885 48.9153 69.0429 48.9197C68.8974 48.924 68.7573 48.976 68.6442 49.0678L64.9487 52.0627L55.6226 45.1757C55.5069 45.0905 55.3666 45.0452 55.2229 45.0465C55.0793 45.0479 54.9399 45.0957 54.8257 45.183L46.5017 51.558V41.433C46.5017 41.2572 46.5715 41.0884 46.6957 40.964C46.82 40.8395 46.9885 40.7693 47.1644 40.769ZM72.3676 58.5772H47.1644C46.9883 58.5772 46.8194 58.5072 46.6949 58.3827C46.5703 58.2581 46.5004 58.0892 46.5004 57.9131V53.2314L55.2348 46.541L64.5728 53.438C64.6912 53.5254 64.8353 53.571 64.9824 53.5676C65.1295 53.5642 65.2714 53.5121 65.3856 53.4194L69.0878 50.4185L73.0317 53.2447V57.9131C73.0317 58.0892 72.9617 58.2581 72.8372 58.3827C72.7126 58.5072 72.5437 58.5772 72.3676 58.5772Z" fill="#4D6172"/>
<path d="M64.5801 48.1998C65.1711 48.1998 65.7489 48.0246 66.2403 47.6962C66.7317 47.3679 67.1147 46.9012 67.3409 46.3551C67.5671 45.8091 67.6263 45.2082 67.5109 44.6286C67.3956 44.0489 67.111 43.5164 66.6931 43.0985C66.2752 42.6806 65.7427 42.396 65.1631 42.2807C64.5834 42.1654 63.9826 42.2246 63.4365 42.4507C62.8905 42.6769 62.4238 43.0599 62.0954 43.5513C61.7671 44.0428 61.5918 44.6205 61.5918 45.2116C61.5918 46.0041 61.9066 46.7642 62.467 47.3246C63.0275 47.885 63.7875 48.1998 64.5801 48.1998ZM64.5801 43.5514C64.9084 43.5514 65.2294 43.6488 65.5024 43.8312C65.7754 44.0136 65.9882 44.2729 66.1139 44.5762C66.2395 44.8796 66.2724 45.2134 66.2083 45.5354C66.1443 45.8575 65.9862 46.1533 65.754 46.3855C65.5218 46.6176 65.226 46.7758 64.904 46.8398C64.5819 46.9039 64.2481 46.871 63.9448 46.7453C63.6414 46.6197 63.3821 46.4069 63.1997 46.1339C63.0173 45.8609 62.9199 45.5399 62.9199 45.2116C62.9199 44.7712 63.0948 44.349 63.4062 44.0376C63.7175 43.7263 64.1398 43.5514 64.5801 43.5514Z" fill="#4D6172"/>
<path d="M72.5761 63.2189H46.9559C46.7798 63.2189 46.6109 63.2889 46.4864 63.4134C46.3618 63.538 46.2919 63.7069 46.2919 63.883C46.2919 64.0591 46.3618 64.228 46.4864 64.3526C46.6109 64.4771 46.7798 64.5471 46.9559 64.5471H72.5761C72.7522 64.5471 72.9212 64.4771 73.0457 64.3526C73.1702 64.228 73.2402 64.0591 73.2402 63.883C73.2402 63.7069 73.1702 63.538 73.0457 63.4134C72.9212 63.2889 72.7522 63.2189 72.5761 63.2189Z" fill="#4D6172"/>
<path d="M72.5761 68.8183H46.9559C46.7798 68.8183 46.6109 68.8883 46.4864 69.0128C46.3618 69.1373 46.2919 69.3062 46.2919 69.4824C46.2919 69.6585 46.3618 69.8274 46.4864 69.9519C46.6109 70.0765 46.7798 70.1464 46.9559 70.1464H72.5761C72.7522 70.1464 72.9212 70.0765 73.0457 69.9519C73.1702 69.8274 73.2402 69.6585 73.2402 69.4824C73.2402 69.3062 73.1702 69.1373 73.0457 69.0128C72.9212 68.8883 72.7522 68.8183 72.5761 68.8183Z" fill="#4D6172"/>
</svg>
